<svg width="40" height="40" viewBox="0 0 40 40" fill="none" xmlns="http://www.w3.org/2000/svg">
<g opacity="0.9">
<rect width="40" height="40" rx="20" fill="#F4F4F7"/>
<path d="M20 11C17.5576 11 17.2505 11.0113 16.2909 11.054C15.3313 11.099 14.6776 11.2498 14.105 11.4725C13.5044 11.6984 12.9603 12.0528 12.5109 12.5109C12.0531 12.9605 11.6987 13.5045 11.4725 14.105C11.2498 14.6765 11.0979 15.3312 11.054 16.2875C11.0113 17.2494 11 17.5554 11 20.0011C11 22.4446 11.0113 22.7506 11.054 23.7103C11.099 24.6688 11.2498 25.3224 11.4725 25.895C11.7031 26.4867 12.0103 26.9885 12.5109 27.4891C13.0104 27.9897 13.5121 28.298 14.1039 28.5275C14.6776 28.7502 15.3301 28.9021 16.2886 28.946C17.2494 28.9887 17.5554 29 20 29C22.4446 29 22.7495 28.9887 23.7103 28.946C24.6676 28.901 25.3235 28.7502 25.8961 28.5275C26.4964 28.3015 27.04 27.9471 27.4891 27.4891C27.9897 26.9885 28.2969 26.4867 28.5275 25.895C28.7491 25.3224 28.901 24.6688 28.946 23.7103C28.9887 22.7506 29 22.4446 29 20C29 17.5554 28.9887 17.2494 28.946 16.2886C28.901 15.3313 28.7491 14.6765 28.5275 14.105C28.3013 13.5045 27.9469 12.9605 27.4891 12.5109C27.0398 12.0526 26.4957 11.6982 25.895 11.4725C25.3212 11.2498 24.6665 11.0979 23.7091 11.054C22.7484 11.0113 22.4435 11 19.9978 11H20.0011H20ZM19.1934 12.6223H20.0011C22.4041 12.6223 22.6888 12.6301 23.6371 12.674C24.5146 12.7134 24.9916 12.8608 25.3089 12.9834C25.7285 13.1465 26.0289 13.3422 26.3439 13.6572C26.6589 13.9722 26.8535 14.2715 27.0166 14.6923C27.1404 15.0084 27.2866 15.4854 27.326 16.3629C27.3699 17.3112 27.3789 17.5959 27.3789 19.9978C27.3789 22.3996 27.3699 22.6854 27.326 23.6337C27.2866 24.5112 27.1393 24.9871 27.0166 25.3044C26.8723 25.6952 26.642 26.0485 26.3427 26.3383C26.0278 26.6532 25.7285 26.8479 25.3078 27.011C24.9928 27.1348 24.5157 27.281 23.6371 27.3215C22.6888 27.3643 22.4041 27.3744 20.0011 27.3744C17.5981 27.3744 17.3124 27.3643 16.364 27.3215C15.4865 27.281 15.0106 27.1348 14.6934 27.011C14.3024 26.8669 13.9488 26.637 13.6584 26.3383C13.3588 26.048 13.1282 25.6944 12.9834 25.3032C12.8608 24.9871 12.7134 24.5101 12.674 23.6326C12.6313 22.6843 12.6223 22.3996 12.6223 19.9955C12.6223 17.5925 12.6313 17.309 12.674 16.3606C12.7145 15.4831 12.8608 15.0061 12.9845 14.6889C13.1476 14.2692 13.3434 13.9689 13.6584 13.6539C13.9734 13.3389 14.2726 13.1442 14.6934 12.9811C15.0106 12.8574 15.4865 12.7111 16.364 12.6706C17.1943 12.6324 17.516 12.6211 19.1934 12.62V12.6223ZM24.8049 14.1163C24.663 14.1163 24.5226 14.1442 24.3916 14.1985C24.2605 14.2527 24.1415 14.3323 24.0412 14.4326C23.9409 14.5329 23.8614 14.6519 23.8071 14.783C23.7528 14.914 23.7249 15.0544 23.7249 15.1962C23.7249 15.3381 23.7528 15.4785 23.8071 15.6095C23.8614 15.7406 23.9409 15.8596 24.0412 15.9599C24.1415 16.0602 24.2605 16.1398 24.3916 16.194C24.5226 16.2483 24.663 16.2762 24.8049 16.2762C25.0913 16.2762 25.366 16.1625 25.5686 15.9599C25.7711 15.7574 25.8849 15.4827 25.8849 15.1962C25.8849 14.9098 25.7711 14.6351 25.5686 14.4326C25.366 14.23 25.0913 14.1163 24.8049 14.1163ZM20.0011 15.3785C19.3881 15.3689 18.7793 15.4814 18.2101 15.7094C17.6409 15.9374 17.1228 16.2763 16.6859 16.7065C16.249 17.1366 15.902 17.6494 15.6652 18.2149C15.4284 18.7804 15.3064 19.3874 15.3064 20.0006C15.3064 20.6137 15.4284 21.2207 15.6652 21.7862C15.902 22.3517 16.249 22.8645 16.6859 23.2946C17.1228 23.7248 17.6409 24.0637 18.2101 24.2917C18.7793 24.5197 19.3881 24.6322 20.0011 24.6226C21.2145 24.6037 22.3717 24.1084 23.2231 23.2437C24.0745 22.3789 24.5516 21.2141 24.5516 20.0006C24.5516 18.7871 24.0745 17.6222 23.2231 16.7575C22.3717 15.8927 21.2145 15.3974 20.0011 15.3785ZM20.0011 16.9996C20.7969 16.9996 21.56 17.3157 22.1227 17.8784C22.6854 18.4411 23.0015 19.2043 23.0015 20C23.0015 20.7957 22.6854 21.5589 22.1227 22.1216C21.56 22.6843 20.7969 23.0004 20.0011 23.0004C19.2054 23.0004 18.4422 22.6843 17.8795 22.1216C17.3169 21.5589 17.0008 20.7957 17.0008 20C17.0008 19.2043 17.3169 18.4411 17.8795 17.8784C18.4422 17.3157 19.2054 16.9996 20.0011 16.9996Z" fill="#1F1F29"/>
</g>
</svg>
