<svg width="40" height="40" viewBox="0 0 40 40" fill="none" xmlns="http://www.w3.org/2000/svg">
<g opacity="0.9">
<rect x="-0.00012207" width="40" height="40" rx="20" fill="#F4F4F7"/>
<path d="M29.5789 14.8548C29.7189 14.3898 29.5789 14.0488 28.9169 14.0488H26.7239C26.1659 14.0488 25.9109 14.3438 25.7709 14.6678C25.7709 14.6678 24.6559 17.3868 23.0759 19.1498C22.5659 19.6628 22.3329 19.8248 22.0549 19.8248C21.9159 19.8248 21.7139 19.6628 21.7139 19.1978V14.8548C21.7139 14.2968 21.5529 14.0488 21.0879 14.0488H17.6419C17.2939 14.0488 17.0839 14.3068 17.0839 14.5528C17.0839 15.0808 17.8739 15.2028 17.9549 16.6908V19.9188C17.9549 20.6258 17.8279 20.7548 17.5479 20.7548C16.8049 20.7548 14.9969 18.0258 13.9239 14.9018C13.7149 14.2948 13.5039 14.0498 12.9439 14.0498H10.7519C10.1249 14.0498 9.99988 14.3448 9.99988 14.6688C9.99988 15.2508 10.7429 18.1308 13.4609 21.9398C15.2729 24.5408 17.8239 25.9508 20.1479 25.9508C21.5409 25.9508 21.7129 25.6378 21.7129 25.0978V23.1318C21.7129 22.5058 21.8459 22.3798 22.2869 22.3798C22.6109 22.3798 23.1689 22.5438 24.4699 23.7968C25.9559 25.2828 26.2019 25.9498 27.0369 25.9498H29.2289C29.8549 25.9498 30.1679 25.6368 29.9879 25.0188C29.7909 24.4038 29.0809 23.5088 28.1389 22.4498C27.6269 21.8458 26.8619 21.1958 26.6289 20.8708C26.3039 20.4518 26.3979 20.2668 26.6289 19.8948C26.6299 19.8958 29.3009 16.1338 29.5789 14.8548Z" fill="#1F1F29"/>
</g>
</svg>
