<svg width="40" height="40" viewBox="0 0 40 40" fill="none" xmlns="http://www.w3.org/2000/svg">
<g opacity="0.9">
<rect width="40" height="40" rx="20" fill="#3DC14F"/>
<path d="M11.67 28.3332L12.7966 24.1932C12.0543 22.9205 11.6642 21.4732 11.6666 19.9998C11.6666 15.3973 15.3975 11.6665 20 11.6665C24.6025 11.6665 28.3333 15.3973 28.3333 19.9998C28.3333 24.6023 24.6025 28.3332 20 28.3332C18.5273 28.3355 17.0805 27.9458 15.8083 27.204L11.67 28.3332ZM16.9925 16.0898C16.8849 16.0965 16.7797 16.1249 16.6833 16.1732C16.5929 16.2244 16.5104 16.2884 16.4383 16.3632C16.3383 16.4573 16.2816 16.539 16.2208 16.6182C15.9128 17.019 15.7471 17.511 15.75 18.0165C15.7516 18.4248 15.8583 18.8223 16.025 19.194C16.3658 19.9457 16.9266 20.7415 17.6675 21.479C17.8458 21.6565 18.02 21.8348 18.2075 22.0007C19.127 22.8102 20.2227 23.394 21.4075 23.7057L21.8816 23.7782C22.0358 23.7865 22.19 23.7748 22.345 23.7673C22.5877 23.7548 22.8246 23.6891 23.0391 23.5748C23.1483 23.5186 23.2548 23.4574 23.3583 23.3915C23.3583 23.3915 23.3941 23.3682 23.4625 23.3165C23.575 23.2332 23.6441 23.174 23.7375 23.0765C23.8066 23.0048 23.8666 22.9207 23.9125 22.8248C23.9775 22.689 24.0425 22.4298 24.0691 22.214C24.0891 22.049 24.0833 21.959 24.0808 21.9032C24.0775 21.814 24.0033 21.7215 23.9225 21.6823L23.4375 21.4648C23.4375 21.4648 22.7125 21.149 22.27 20.9473C22.2233 20.927 22.1733 20.9154 22.1225 20.9132C22.0655 20.9073 22.0078 20.9137 21.9535 20.932C21.8992 20.9502 21.8494 20.9799 21.8075 21.019V21.0173C21.8033 21.0173 21.7475 21.0648 21.145 21.7948C21.1104 21.8413 21.0628 21.8764 21.0081 21.8957C20.9535 21.915 20.8944 21.9176 20.8383 21.9032C20.784 21.8887 20.7308 21.8703 20.6791 21.8482C20.5758 21.8048 20.54 21.7882 20.4691 21.7573L20.465 21.7557C19.9882 21.5475 19.5468 21.2664 19.1566 20.9223C19.0516 20.8307 18.9541 20.7307 18.8541 20.634C18.5263 20.32 18.2406 19.9648 18.0041 19.5773L17.955 19.4982C17.9197 19.445 17.8911 19.3876 17.87 19.3273C17.8383 19.2048 17.9208 19.1065 17.9208 19.1065C17.9208 19.1065 18.1233 18.8848 18.2175 18.7648C18.2959 18.6651 18.369 18.5614 18.4366 18.454C18.535 18.2957 18.5658 18.1332 18.5141 18.0073C18.2808 17.4373 18.0391 16.8698 17.7908 16.3065C17.7416 16.1948 17.5958 16.1148 17.4633 16.099C17.4183 16.094 17.3733 16.089 17.3283 16.0857C17.2164 16.0801 17.1042 16.0812 16.9925 16.089V16.0898Z" fill="white"/>
</g>
</svg>
