<svg width="40" height="40" viewBox="0 0 40 40" fill="none" xmlns="http://www.w3.org/2000/svg">
<rect width="40" height="40" rx="20" fill="#2787F5"/>
<path d="M29.579 14.855C29.719 14.39 29.579 14.049 28.917 14.049H26.724C26.166 14.049 25.911 14.344 25.771 14.668C25.771 14.668 24.656 17.387 23.076 19.15C22.566 19.663 22.333 19.825 22.055 19.825C21.916 19.825 21.714 19.663 21.714 19.198V14.855C21.714 14.297 21.553 14.049 21.088 14.049H17.642C17.294 14.049 17.084 14.307 17.084 14.553C17.084 15.081 17.874 15.203 17.955 16.691V19.919C17.955 20.6259 17.828 20.755 17.548 20.755C16.805 20.755 14.997 18.026 13.924 14.902C13.715 14.295 13.504 14.05 12.944 14.05H10.752C10.125 14.05 10 14.345 10 14.669C10 15.251 10.743 18.1309 13.461 21.9399C15.273 24.5409 17.824 25.951 20.148 25.951C21.541 25.951 21.713 25.6379 21.713 25.0979V23.132C21.713 22.5059 21.846 22.38 22.287 22.38C22.611 22.38 23.169 22.544 24.47 23.797C25.956 25.283 26.202 25.95 27.037 25.95H29.229C29.855 25.95 30.168 25.6369 29.988 25.0189C29.791 24.4039 29.081 23.509 28.139 22.45C27.627 21.846 26.862 21.196 26.629 20.871C26.304 20.452 26.398 20.267 26.629 19.895C26.63 19.896 29.301 16.134 29.579 14.855Z" fill="white"/>
</svg>
